<mxfile host="Electron" modified="2023-08-11T02:50:13.660Z" agent="Mozilla/5.0 (Windows NT 10.0; Win64; x64) AppleWebKit/537.36 (KHTML, like Gecko) draw.io/21.6.1 Chrome/112.0.5615.204 Electron/24.6.1 Safari/537.36" etag="6geZF9ujWm0eHSzERgOw" version="21.6.1" type="device">
  <diagram name="Page-1" id="8378b5f6-a2b2-b727-a746-972ab9d02e00">
    <mxGraphModel dx="1723" dy="818" grid="1" gridSize="10" guides="1" tooltips="1" connect="0" arrows="1" fold="1" page="1" pageScale="1.5" pageWidth="1169" pageHeight="827" background="none" math="0" shadow="0">
      <root>
        <mxCell id="0" />
        <mxCell id="1" parent="0" />
        <mxCell id="BJyjRw2u1usJgPKZbhh1-278" value="" style="edgeStyle=orthogonalEdgeStyle;rounded=0;orthogonalLoop=1;jettySize=auto;html=1;" edge="1" parent="1" source="63" target="2">
          <mxGeometry relative="1" as="geometry" />
        </mxCell>
        <mxCell id="63" value="1" style="strokeColor=#DEEDFF;fillColor=#ADC3D9" parent="1" vertex="1">
          <mxGeometry x="86.5" y="380" width="40" height="20" as="geometry" />
        </mxCell>
        <mxCell id="64" value="Defining and Assigning Project Roles" style="align=left;strokeColor=#DEEDFF;fillColor=#ADC3D9;" parent="1" vertex="1">
          <mxGeometry x="126.5" y="380" width="320" height="20" as="geometry" />
        </mxCell>
        <mxCell id="65" value="1 day" style="strokeColor=#DEEDFF;fillColor=#ADC3D9" parent="1" vertex="1">
          <mxGeometry x="446.50000000000176" y="380" width="80.00000000000028" height="20" as="geometry" />
        </mxCell>
        <mxCell id="66" value="31/07/2023" style="strokeColor=#DEEDFF;fillColor=#ADC3D9" parent="1" vertex="1">
          <mxGeometry x="526.500000000002" y="380" width="80.00000000000028" height="20" as="geometry" />
        </mxCell>
        <mxCell id="67" value="31/07/2023" style="strokeColor=#DEEDFF;fillColor=#ADC3D9" parent="1" vertex="1">
          <mxGeometry x="606.5000000000016" y="380.0000000000002" width="80.00000000000028" height="20" as="geometry" />
        </mxCell>
        <mxCell id="68" value="" style="strokeColor=#DEEDFF" parent="1" vertex="1">
          <mxGeometry x="686.5" y="380" width="20" height="680" as="geometry" />
        </mxCell>
        <mxCell id="69" value="2" style="strokeColor=#DEEDFF;fillColor=#FFFFFF;" parent="1" vertex="1">
          <mxGeometry x="86.50000000000026" y="399.9999999999999" width="40" height="20" as="geometry" />
        </mxCell>
        <mxCell id="70" value="Project Scope and Project Goals" style="align=left;strokeColor=#DEEDFF;fillColor=#FFFFFF;" parent="1" vertex="1">
          <mxGeometry x="126.50000000000026" y="399.9999999999999" width="319.9999999999998" height="20" as="geometry" />
        </mxCell>
        <mxCell id="71" value="4 days" style="strokeColor=#DEEDFF;fillColor=#FFFFFF;" parent="1" vertex="1">
          <mxGeometry x="446.500000000002" y="399.99999999999983" width="80.00000000000028" height="20" as="geometry" />
        </mxCell>
        <mxCell id="72" value="31/07/2023" style="strokeColor=#DEEDFF;fillColor=#FFFFFF;" parent="1" vertex="1">
          <mxGeometry x="526.5000000000023" y="399.99999999999983" width="80.00000000000028" height="20" as="geometry" />
        </mxCell>
        <mxCell id="73" value="03/08/2023" style="strokeColor=#DEEDFF;fillColor=#FFFFFF;" parent="1" vertex="1">
          <mxGeometry x="606.5000000000018" y="400.0000000000001" width="80.00000000000028" height="20" as="geometry" />
        </mxCell>
        <mxCell id="74" value="3" style="strokeColor=#DEEDFF" parent="1" vertex="1">
          <mxGeometry x="86.50000000000027" y="419.9999999999998" width="40" height="20" as="geometry" />
        </mxCell>
        <mxCell id="75" value="Identifying Project Risks" style="align=left;strokeColor=#DEEDFF" parent="1" vertex="1">
          <mxGeometry x="126.50000000000027" y="419.9999999999998" width="319.9999999999997" height="20.000000000000014" as="geometry" />
        </mxCell>
        <mxCell id="76" value="1 day" style="strokeColor=#DEEDFF" parent="1" vertex="1">
          <mxGeometry x="446.500000000002" y="419.9999999999997" width="80.00000000000028" height="20" as="geometry" />
        </mxCell>
        <mxCell id="77" value="03/08/2023" style="strokeColor=#DEEDFF" parent="1" vertex="1">
          <mxGeometry x="526.5000000000023" y="419.9999999999997" width="80.00000000000028" height="20" as="geometry" />
        </mxCell>
        <mxCell id="78" value="03/08/2023" style="strokeColor=#DEEDFF" parent="1" vertex="1">
          <mxGeometry x="606.5000000000018" y="420" width="80.00000000000028" height="20" as="geometry" />
        </mxCell>
        <mxCell id="79" value="4" style="strokeColor=#DEEDFF" parent="1" vertex="1">
          <mxGeometry x="86.5" y="440.00000000000017" width="40" height="20" as="geometry" />
        </mxCell>
        <mxCell id="80" value="Client Kick Off Meeting" style="align=left;strokeColor=#DEEDFF" parent="1" vertex="1">
          <mxGeometry x="126.5" y="440.00000000000017" width="320" height="20" as="geometry" />
        </mxCell>
        <mxCell id="81" value="1 day" style="strokeColor=#DEEDFF" parent="1" vertex="1">
          <mxGeometry x="446.5000000000017" y="440.0000000000001" width="80.00000000000028" height="20" as="geometry" />
        </mxCell>
        <mxCell id="82" value="04/08/2023" style="strokeColor=#DEEDFF" parent="1" vertex="1">
          <mxGeometry x="526.500000000002" y="440.0000000000001" width="80.00000000000028" height="20" as="geometry" />
        </mxCell>
        <mxCell id="83" value="04/08/2023" style="strokeColor=#DEEDFF" parent="1" vertex="1">
          <mxGeometry x="606.5000000000015" y="440.0000000000004" width="80.00000000000028" height="20" as="geometry" />
        </mxCell>
        <mxCell id="84" value="5" style="strokeColor=#DEEDFF" parent="1" vertex="1">
          <mxGeometry x="86.49999999999991" y="460.00000000000017" width="40" height="20" as="geometry" />
        </mxCell>
        <mxCell id="85" value="Stage 1 Progress ReportÂ " style="align=left;strokeColor=#DEEDFF" parent="1" vertex="1">
          <mxGeometry x="126.49999999999991" y="460.00000000000017" width="320.0000000000001" height="20" as="geometry" />
        </mxCell>
        <mxCell id="86" value="1 day" style="strokeColor=#DEEDFF" parent="1" vertex="1">
          <mxGeometry x="446.50000000000165" y="460.0000000000001" width="80.00000000000028" height="20" as="geometry" />
        </mxCell>
        <mxCell id="87" value="04/08/2023" style="strokeColor=#DEEDFF" parent="1" vertex="1">
          <mxGeometry x="526.5000000000019" y="460.0000000000001" width="80.00000000000028" height="20" as="geometry" />
        </mxCell>
        <mxCell id="88" value="04/08/2023" style="strokeColor=#DEEDFF" parent="1" vertex="1">
          <mxGeometry x="606.5000000000015" y="460.0000000000004" width="80.00000000000028" height="20" as="geometry" />
        </mxCell>
        <mxCell id="89" value="6" style="strokeColor=#DEEDFF" parent="1" vertex="1">
          <mxGeometry x="86.4999999999999" y="480.00000000000045" width="40" height="20" as="geometry" />
        </mxCell>
        <mxCell id="90" value="Submitting Stage One" style="align=left;strokeColor=#DEEDFF" parent="1" vertex="1">
          <mxGeometry x="126.4999999999999" y="480.00000000000045" width="320.0000000000001" height="20" as="geometry" />
        </mxCell>
        <mxCell id="91" value="1 day" style="strokeColor=#DEEDFF" parent="1" vertex="1">
          <mxGeometry x="446.50000000000165" y="480.00000000000034" width="80.00000000000028" height="20" as="geometry" />
        </mxCell>
        <mxCell id="92" value="04/08/2023" style="strokeColor=#DEEDFF" parent="1" vertex="1">
          <mxGeometry x="526.5000000000019" y="480.00000000000034" width="80.00000000000028" height="20" as="geometry" />
        </mxCell>
        <mxCell id="93" value="04/08/2023" style="strokeColor=#DEEDFF" parent="1" vertex="1">
          <mxGeometry x="606.5000000000015" y="480.0000000000007" width="80.00000000000028" height="20" as="geometry" />
        </mxCell>
        <mxCell id="94" value="7" style="strokeColor=#DEEDFF;fillColor=#ADC3D9;" parent="1" vertex="1">
          <mxGeometry x="86.50000000000063" y="500.0000000000007" width="40" height="20" as="geometry" />
        </mxCell>
        <mxCell id="95" value="Identify Project Use Cases" style="align=left;strokeColor=#DEEDFF;fillColor=#ADC3D9;" parent="1" vertex="1">
          <mxGeometry x="126.50000000000063" y="500.0000000000007" width="319.9999999999994" height="20" as="geometry" />
        </mxCell>
        <mxCell id="96" value="2 dyas" style="strokeColor=#DEEDFF;fillColor=#ADC3D9;" parent="1" vertex="1">
          <mxGeometry x="446.5000000000024" y="500.0000000000007" width="80.00000000000028" height="20" as="geometry" />
        </mxCell>
        <mxCell id="97" value="05/08/2023" style="strokeColor=#DEEDFF;fillColor=#ADC3D9;" parent="1" vertex="1">
          <mxGeometry x="526.5000000000027" y="500.0000000000007" width="80.00000000000028" height="20" as="geometry" />
        </mxCell>
        <mxCell id="98" value="06/08/2023" style="strokeColor=#DEEDFF;fillColor=#ADC3D9;" parent="1" vertex="1">
          <mxGeometry x="606.5000000000022" y="500.0000000000009" width="80.00000000000028" height="20" as="geometry" />
        </mxCell>
        <mxCell id="99" value="" style="strokeColor=#DEEDFF" parent="1" vertex="1">
          <mxGeometry x="86.50000000000064" y="520.0000000000006" width="40" height="20" as="geometry" />
        </mxCell>
        <mxCell id="100" value="a. Construct Use Case Diagram" style="align=left;strokeColor=#DEEDFF" parent="1" vertex="1">
          <mxGeometry x="126.50000000000064" y="520.0000000000006" width="319.9999999999994" height="20" as="geometry" />
        </mxCell>
        <mxCell id="101" value="1 day" style="strokeColor=#DEEDFF" parent="1" vertex="1">
          <mxGeometry x="446.5000000000024" y="520.0000000000006" width="80.00000000000028" height="20" as="geometry" />
        </mxCell>
        <mxCell id="102" value="05/08/2023" style="strokeColor=#DEEDFF" parent="1" vertex="1">
          <mxGeometry x="526.5000000000027" y="520.0000000000006" width="80.00000000000028" height="20" as="geometry" />
        </mxCell>
        <mxCell id="103" value="05/08/2023" style="strokeColor=#DEEDFF" parent="1" vertex="1">
          <mxGeometry x="606.5000000000022" y="520.0000000000008" width="80.00000000000028" height="20" as="geometry" />
        </mxCell>
        <mxCell id="104" value="" style="strokeColor=#DEEDFF;fillColor=#FFFFFF;" parent="1" vertex="1">
          <mxGeometry x="86.50000000000037" y="540.000000000001" width="40" height="20" as="geometry" />
        </mxCell>
        <mxCell id="105" value="b. Define a Use Case Narrative for Each Use Case" style="align=left;strokeColor=#DEEDFF;fillColor=#FFFFFF;" parent="1" vertex="1">
          <mxGeometry x="126.50000000000037" y="540.000000000001" width="319.99999999999966" height="20.00000000000003" as="geometry" />
        </mxCell>
        <mxCell id="106" value="1 day" style="strokeColor=#DEEDFF;fillColor=#FFFFFF;" parent="1" vertex="1">
          <mxGeometry x="446.5000000000021" y="540.0000000000009" width="80.00000000000028" height="20" as="geometry" />
        </mxCell>
        <mxCell id="107" value="06/08/2023" style="strokeColor=#DEEDFF;fillColor=#FFFFFF;" parent="1" vertex="1">
          <mxGeometry x="526.5000000000025" y="540.0000000000009" width="80.00000000000028" height="20" as="geometry" />
        </mxCell>
        <mxCell id="108" value="06/08/2023" style="strokeColor=#DEEDFF;fillColor=#FFFFFF;" parent="1" vertex="1">
          <mxGeometry x="606.5000000000018" y="540.0000000000013" width="80.00000000000028" height="20" as="geometry" />
        </mxCell>
        <mxCell id="109" value="8" style="strokeColor=#DEEDFF" parent="1" vertex="1">
          <mxGeometry x="86.50000000000028" y="560.000000000001" width="40" height="20" as="geometry" />
        </mxCell>
        <mxCell id="111" value="2 days" style="strokeColor=#DEEDFF" parent="1" vertex="1">
          <mxGeometry x="446.50000000000205" y="560.0000000000009" width="80.00000000000028" height="20" as="geometry" />
        </mxCell>
        <mxCell id="112" value="07/08/2023" style="strokeColor=#DEEDFF" parent="1" vertex="1">
          <mxGeometry x="526.5000000000023" y="560.0000000000009" width="80.00000000000028" height="20" as="geometry" />
        </mxCell>
        <mxCell id="113" value="09/08/2023" style="strokeColor=#DEEDFF" parent="1" vertex="1">
          <mxGeometry x="606.5000000000018" y="560.0000000000013" width="80.00000000000028" height="20" as="geometry" />
        </mxCell>
        <mxCell id="114" value="9" style="strokeColor=#DEEDFF" parent="1" vertex="1">
          <mxGeometry x="86.50000000000027" y="580.0000000000013" width="40" height="20" as="geometry" />
        </mxCell>
        <mxCell id="115" value="Construct Project Analysis Model and Sequence Diagram" style="align=left;strokeColor=#DEEDFF" parent="1" vertex="1">
          <mxGeometry x="126.50000000000027" y="560.0000000000013" width="319.9999999999997" height="20" as="geometry" />
        </mxCell>
        <mxCell id="116" value="1 day" style="strokeColor=#DEEDFF" parent="1" vertex="1">
          <mxGeometry x="446.50000000000205" y="580.0000000000011" width="80.00000000000028" height="20" as="geometry" />
        </mxCell>
        <mxCell id="117" value="08/08/2023" style="strokeColor=#DEEDFF" parent="1" vertex="1">
          <mxGeometry x="526.5000000000023" y="580.0000000000011" width="80.00000000000028" height="20" as="geometry" />
        </mxCell>
        <mxCell id="118" value="08/08/2023" style="strokeColor=#DEEDFF" parent="1" vertex="1">
          <mxGeometry x="606.5000000000018" y="580.0000000000015" width="80.00000000000028" height="20" as="geometry" />
        </mxCell>
        <mxCell id="119" value="10" style="strokeColor=#DEEDFF" parent="1" vertex="1">
          <mxGeometry x="86.49999999999997" y="600.0000000000016" width="40" height="20" as="geometry" />
        </mxCell>
        <mxCell id="120" value="Create a Project Test Plan" style="align=left;strokeColor=#DEEDFF" parent="1" vertex="1">
          <mxGeometry x="126.49999999999997" y="600.0000000000016" width="320" height="20" as="geometry" />
        </mxCell>
        <mxCell id="121" value="1 day" style="strokeColor=#DEEDFF" parent="1" vertex="1">
          <mxGeometry x="446.5000000000017" y="600.0000000000015" width="80.00000000000028" height="20" as="geometry" />
        </mxCell>
        <mxCell id="122" value="10/08/2023" style="strokeColor=#DEEDFF" parent="1" vertex="1">
          <mxGeometry x="526.500000000002" y="600.0000000000015" width="80.00000000000028" height="20" as="geometry" />
        </mxCell>
        <mxCell id="123" value="10/08/2023" style="strokeColor=#DEEDFF" parent="1" vertex="1">
          <mxGeometry x="606.5000000000015" y="600.0000000000018" width="80.00000000000028" height="20" as="geometry" />
        </mxCell>
        <mxCell id="124" value="11" style="strokeColor=#DEEDFF" parent="1" vertex="1">
          <mxGeometry x="86.49999999999999" y="620.0000000000014" width="40" height="20" as="geometry" />
        </mxCell>
        <mxCell id="125" value="Stage 2 Progress Report" style="align=left;strokeColor=#DEEDFF" parent="1" vertex="1">
          <mxGeometry x="126.49999999999999" y="620.0000000000014" width="320" height="20" as="geometry" />
        </mxCell>
        <mxCell id="126" value="1 day" style="strokeColor=#DEEDFF" parent="1" vertex="1">
          <mxGeometry x="446.5000000000017" y="620.0000000000014" width="80.00000000000028" height="20" as="geometry" />
        </mxCell>
        <mxCell id="127" value="11/08/2023" style="strokeColor=#DEEDFF" parent="1" vertex="1">
          <mxGeometry x="526.500000000002" y="620.0000000000014" width="80.00000000000028" height="20" as="geometry" />
        </mxCell>
        <mxCell id="128" value="11/08/2023" style="strokeColor=#DEEDFF" parent="1" vertex="1">
          <mxGeometry x="606.5000000000015" y="620.0000000000016" width="80.00000000000028" height="20" as="geometry" />
        </mxCell>
        <mxCell id="129" value="12" style="strokeColor=#DEEDFF" parent="1" vertex="1">
          <mxGeometry x="86.49999999999972" y="640.0000000000018" width="40" height="20" as="geometry" />
        </mxCell>
        <mxCell id="130" value="Submit Stage 2" style="align=left;strokeColor=#DEEDFF" parent="1" vertex="1">
          <mxGeometry x="126.49999999999972" y="640.0000000000018" width="320.0000000000003" height="20" as="geometry" />
        </mxCell>
        <mxCell id="131" value="2 days" style="strokeColor=#DEEDFF" parent="1" vertex="1">
          <mxGeometry x="446.5000000000014" y="640.0000000000018" width="80.00000000000028" height="20" as="geometry" />
        </mxCell>
        <mxCell id="132" value="11/08/2023" style="strokeColor=#DEEDFF" parent="1" vertex="1">
          <mxGeometry x="526.5000000000018" y="640.0000000000018" width="80.00000000000028" height="20" as="geometry" />
        </mxCell>
        <mxCell id="133" value="11/08/2023" style="strokeColor=#DEEDFF" parent="1" vertex="1">
          <mxGeometry x="606.5000000000011" y="640.000000000002" width="80.00000000000028" height="20" as="geometry" />
        </mxCell>
        <mxCell id="134" value="13" style="strokeColor=#DEEDFF;fillColor=#ADC3D9;" parent="1" vertex="1">
          <mxGeometry x="86.49999999999963" y="660.0000000000018" width="40" height="20" as="geometry" />
        </mxCell>
        <mxCell id="135" value="Prototype Interface and Technical Design" style="align=left;strokeColor=#DEEDFF;fillColor=#ADC3D9;" parent="1" vertex="1">
          <mxGeometry x="126.49999999999963" y="660.0000000000018" width="320.00000000000034" height="20" as="geometry" />
        </mxCell>
        <mxCell id="136" value="3 days" style="strokeColor=#DEEDFF;fillColor=#ADC3D9;" parent="1" vertex="1">
          <mxGeometry x="446.50000000000136" y="660.0000000000018" width="80.00000000000028" height="20" as="geometry" />
        </mxCell>
        <mxCell id="137" value="12/08/2023" style="strokeColor=#DEEDFF;fillColor=#ADC3D9;" parent="1" vertex="1">
          <mxGeometry x="526.5000000000016" y="660.0000000000018" width="80.00000000000028" height="20" as="geometry" />
        </mxCell>
        <mxCell id="138" value="12/08/2023" style="strokeColor=#DEEDFF;fillColor=#ADC3D9;" parent="1" vertex="1">
          <mxGeometry x="606.5000000000011" y="660.000000000002" width="80.00000000000028" height="20" as="geometry" />
        </mxCell>
        <mxCell id="139" value="14" style="strokeColor=#DEEDFF;fillColor=#FFFFFF;" parent="1" vertex="1">
          <mxGeometry x="86.49999999999962" y="680.000000000002" width="40" height="20" as="geometry" />
        </mxCell>
        <mxCell id="140" value="Prototype Implementation" style="align=left;strokeColor=#DEEDFF;fillColor=#FFFFFF;" parent="1" vertex="1">
          <mxGeometry x="126.49999999999962" y="680.000000000002" width="320.0000000000004" height="20" as="geometry" />
        </mxCell>
        <mxCell id="141" value="31 days" style="strokeColor=#DEEDFF;fillColor=#FFFFFF;" parent="1" vertex="1">
          <mxGeometry x="446.50000000000136" y="680.000000000002" width="80.00000000000028" height="20" as="geometry" />
        </mxCell>
        <mxCell id="142" value="13/08/2023" style="strokeColor=#DEEDFF;fillColor=#FFFFFF;" parent="1" vertex="1">
          <mxGeometry x="526.5" y="680" width="80" height="20" as="geometry" />
        </mxCell>
        <mxCell id="143" value="17/08/2023" style="strokeColor=#DEEDFF;fillColor=#FFFFFF;" parent="1" vertex="1">
          <mxGeometry x="606.5000000000011" y="680.0000000000023" width="80.00000000000028" height="20" as="geometry" />
        </mxCell>
        <mxCell id="144" value="Â Â Â Â " style="strokeColor=#DEEDFF" parent="1" vertex="1">
          <mxGeometry x="86.500000000001" y="700.0000000000023" width="40" height="20" as="geometry" />
        </mxCell>
        <mxCell id="145" value="a. Requirement 1: Offline functionality" style="align=left;strokeColor=#DEEDFF" parent="1" vertex="1">
          <mxGeometry x="126.500000000001" y="700.0000000000023" width="319.999999999999" height="20" as="geometry" />
        </mxCell>
        <mxCell id="146" value="1 day" style="strokeColor=#DEEDFF" parent="1" vertex="1">
          <mxGeometry x="446.50000000000273" y="700.0000000000023" width="80.00000000000028" height="20" as="geometry" />
        </mxCell>
        <mxCell id="147" value="13/08/2023" style="strokeColor=#DEEDFF" parent="1" vertex="1">
          <mxGeometry x="526.500000000003" y="700.0000000000023" width="80.00000000000028" height="20" as="geometry" />
        </mxCell>
        <mxCell id="148" value="13/08/2023" style="strokeColor=#DEEDFF" parent="1" vertex="1">
          <mxGeometry x="606.5000000000025" y="700.0000000000025" width="80.00000000000028" height="20" as="geometry" />
        </mxCell>
        <mxCell id="149" value="" style="strokeColor=#DEEDFF" parent="1" vertex="1">
          <mxGeometry x="86.50000000000102" y="720.0000000000022" width="40" height="20" as="geometry" />
        </mxCell>
        <mxCell id="150" value="b. Requirement 2: Upload own grammar file" style="align=left;strokeColor=#DEEDFF" parent="1" vertex="1">
          <mxGeometry x="126.50000000000102" y="720.0000000000022" width="319.999999999999" height="20" as="geometry" />
        </mxCell>
        <mxCell id="151" value="2 days" style="strokeColor=#DEEDFF" parent="1" vertex="1">
          <mxGeometry x="446.50000000000273" y="720.000000000002" width="80.00000000000028" height="20" as="geometry" />
        </mxCell>
        <mxCell id="152" value="14/08/2023" style="strokeColor=#DEEDFF" parent="1" vertex="1">
          <mxGeometry x="526.500000000003" y="720.000000000002" width="80.00000000000028" height="20" as="geometry" />
        </mxCell>
        <mxCell id="153" value="15/08/2023" style="strokeColor=#DEEDFF" parent="1" vertex="1">
          <mxGeometry x="606.5000000000025" y="720.0000000000024" width="80.00000000000028" height="20" as="geometry" />
        </mxCell>
        <mxCell id="154" value="Â Â Â Â " style="strokeColor=#DEEDFF" parent="1" vertex="1">
          <mxGeometry x="86.50000000000074" y="740.0000000000025" width="40" height="20" as="geometry" />
        </mxCell>
        <mxCell id="155" value="c. Requirement 3: Multiple sentences" style="align=left;strokeColor=#DEEDFF" parent="1" vertex="1">
          <mxGeometry x="126.50000000000074" y="740.0000000000025" width="319.99999999999926" height="20" as="geometry" />
        </mxCell>
        <mxCell id="156" value="2 days" style="strokeColor=#DEEDFF" parent="1" vertex="1">
          <mxGeometry x="446.50000000000244" y="740.0000000000025" width="80.00000000000028" height="20" as="geometry" />
        </mxCell>
        <mxCell id="157" value="15/08/2023" style="strokeColor=#DEEDFF" parent="1" vertex="1">
          <mxGeometry x="526.5000000000027" y="740.0000000000025" width="80.00000000000028" height="20" as="geometry" />
        </mxCell>
        <mxCell id="158" value="16/08/2023" style="strokeColor=#DEEDFF" parent="1" vertex="1">
          <mxGeometry x="606.5000000000023" y="740.0000000000027" width="80.00000000000028" height="20" as="geometry" />
        </mxCell>
        <mxCell id="159" value="" style="strokeColor=#DEEDFF" parent="1" vertex="1">
          <mxGeometry x="86.50000000000065" y="760.0000000000025" width="40" height="20" as="geometry" />
        </mxCell>
        <mxCell id="160" value="d. Requirement 4: Easy deletion" style="align=left;strokeColor=#DEEDFF" parent="1" vertex="1">
          <mxGeometry x="126.50000000000065" y="760.0000000000025" width="319.9999999999993" height="20" as="geometry" />
        </mxCell>
        <mxCell id="161" value="2 days" style="strokeColor=#DEEDFF" parent="1" vertex="1">
          <mxGeometry x="446.5000000000024" y="760.0000000000025" width="80.00000000000028" height="20" as="geometry" />
        </mxCell>
        <mxCell id="162" value="16/08/2023" style="strokeColor=#DEEDFF" parent="1" vertex="1">
          <mxGeometry x="526.5000000000027" y="760.0000000000025" width="80.00000000000028" height="20" as="geometry" />
        </mxCell>
        <mxCell id="163" value="17/08/2023" style="strokeColor=#DEEDFF" parent="1" vertex="1">
          <mxGeometry x="606.5000000000023" y="760.0000000000027" width="80.00000000000028" height="20" as="geometry" />
        </mxCell>
        <mxCell id="164" value="15" style="strokeColor=#DEEDFF" parent="1" vertex="1">
          <mxGeometry x="86.50000000000065" y="780.0000000000028" width="40" height="20" as="geometry" />
        </mxCell>
        <mxCell id="165" value="Prototype documentation" style="align=left;strokeColor=#DEEDFF" parent="1" vertex="1">
          <mxGeometry x="126.50000000000065" y="780.0000000000028" width="319.9999999999993" height="20" as="geometry" />
        </mxCell>
        <mxCell id="166" value="4 days" style="strokeColor=#DEEDFF" parent="1" vertex="1">
          <mxGeometry x="446.5000000000024" y="780.0000000000027" width="80.00000000000028" height="20" as="geometry" />
        </mxCell>
        <mxCell id="167" value="13/08/2023" style="strokeColor=#DEEDFF" parent="1" vertex="1">
          <mxGeometry x="526.5000000000027" y="780.0000000000027" width="80.00000000000028" height="20" as="geometry" />
        </mxCell>
        <mxCell id="168" value="17/08/2023" style="strokeColor=#DEEDFF" parent="1" vertex="1">
          <mxGeometry x="606.5000000000023" y="780.0000000000031" width="80.00000000000028" height="20" as="geometry" />
        </mxCell>
        <mxCell id="169" value="16" style="strokeColor=#DEEDFF" parent="1" vertex="1">
          <mxGeometry x="86.50000000000136" y="800.0000000000031" width="40" height="20" as="geometry" />
        </mxCell>
        <mxCell id="170" value="Prepare Client Demonstration" style="align=left;strokeColor=#DEEDFF" parent="1" vertex="1">
          <mxGeometry x="126.50000000000136" y="800.0000000000031" width="319.99999999999864" height="20" as="geometry" />
        </mxCell>
        <mxCell id="171" value="2 days" style="strokeColor=#DEEDFF" parent="1" vertex="1">
          <mxGeometry x="446.5000000000031" y="800.000000000003" width="80.00000000000028" height="20" as="geometry" />
        </mxCell>
        <mxCell id="172" value="15/08/2023" style="strokeColor=#DEEDFF" parent="1" vertex="1">
          <mxGeometry x="526.5000000000034" y="800.000000000003" width="80.00000000000028" height="20" as="geometry" />
        </mxCell>
        <mxCell id="173" value="16/08/2023" style="strokeColor=#DEEDFF" parent="1" vertex="1">
          <mxGeometry x="606.500000000003" y="800.0000000000033" width="80.00000000000028" height="20" as="geometry" />
        </mxCell>
        <mxCell id="174" value="17" style="strokeColor=#DEEDFF" parent="1" vertex="1">
          <mxGeometry x="86.50000000000139" y="820.000000000003" width="40" height="20" as="geometry" />
        </mxCell>
        <mxCell id="175" value="Stage 3 Progress Report" style="align=left;strokeColor=#DEEDFF" parent="1" vertex="1">
          <mxGeometry x="126.50000000000139" y="820.000000000003" width="319.99999999999864" height="20" as="geometry" />
        </mxCell>
        <mxCell id="176" value="1 day" style="strokeColor=#DEEDFF" parent="1" vertex="1">
          <mxGeometry x="446.5000000000031" y="820.000000000003" width="80.00000000000028" height="20" as="geometry" />
        </mxCell>
        <mxCell id="177" value="17/08/2023" style="strokeColor=#DEEDFF" parent="1" vertex="1">
          <mxGeometry x="526.5000000000034" y="820.000000000003" width="80.00000000000028" height="20" as="geometry" />
        </mxCell>
        <mxCell id="178" value="17/08/2023" style="strokeColor=#DEEDFF" parent="1" vertex="1">
          <mxGeometry x="606.500000000003" y="820.0000000000032" width="80.00000000000028" height="20" as="geometry" />
        </mxCell>
        <mxCell id="179" value="18" style="strokeColor=#DEEDFF" parent="1" vertex="1">
          <mxGeometry x="86.50000000000111" y="840.0000000000034" width="40" height="20" as="geometry" />
        </mxCell>
        <mxCell id="180" value="Submit Stage 3 including previous progress reports" style="align=left;strokeColor=#DEEDFF" parent="1" vertex="1">
          <mxGeometry x="126.50000000000111" y="840.0000000000034" width="319.99999999999886" height="20" as="geometry" />
        </mxCell>
        <mxCell id="181" value="1 day" style="strokeColor=#DEEDFF" parent="1" vertex="1">
          <mxGeometry x="446.50000000000284" y="840.0000000000033" width="80.00000000000028" height="20" as="geometry" />
        </mxCell>
        <mxCell id="182" value="17/08/2023" style="strokeColor=#DEEDFF" parent="1" vertex="1">
          <mxGeometry x="526.5000000000032" y="840.0000000000033" width="80.00000000000028" height="20" as="geometry" />
        </mxCell>
        <mxCell id="183" value="17/08/2023" style="strokeColor=#DEEDFF" parent="1" vertex="1">
          <mxGeometry x="606.5000000000026" y="840.0000000000036" width="80.00000000000028" height="20" as="geometry" />
        </mxCell>
        <mxCell id="184" value="19" style="strokeColor=#DEEDFF;fillColor=#ADC3D9;" parent="1" vertex="1">
          <mxGeometry x="86.50000000000102" y="860.0000000000034" width="40" height="20" as="geometry" />
        </mxCell>
        <mxCell id="185" value="Final Project Requirement: Predictive testing" style="align=left;strokeColor=#DEEDFF;fillColor=#ADC3D9;" parent="1" vertex="1">
          <mxGeometry x="126.50000000000102" y="860.0000000000034" width="319.999999999999" height="20" as="geometry" />
        </mxCell>
        <mxCell id="186" value="3 days" style="strokeColor=#DEEDFF;fillColor=#ADC3D9;" parent="1" vertex="1">
          <mxGeometry x="446.5000000000028" y="860.0000000000033" width="80.00000000000028" height="20" as="geometry" />
        </mxCell>
        <mxCell id="187" value="19/08/2023Â Â Â Â " style="strokeColor=#DEEDFF;fillColor=#ADC3D9;" parent="1" vertex="1">
          <mxGeometry x="526.5000000000031" y="860.0000000000033" width="80.00000000000028" height="20" as="geometry" />
        </mxCell>
        <mxCell id="188" value="21/08/2023" style="strokeColor=#DEEDFF;fillColor=#ADC3D9;" parent="1" vertex="1">
          <mxGeometry x="606.5000000000026" y="860.0000000000036" width="80.00000000000028" height="20" as="geometry" />
        </mxCell>
        <mxCell id="189" value="20" style="strokeColor=#DEEDFF" parent="1" vertex="1">
          <mxGeometry x="86.50000000000102" y="880.0000000000036" width="40" height="20" as="geometry" />
        </mxCell>
        <mxCell id="190" value="Project Implementation faceÂ " style="align=left;strokeColor=#DEEDFF" parent="1" vertex="1">
          <mxGeometry x="126.500000000001" y="880.0000000000036" width="319.999999999999" height="20" as="geometry" />
        </mxCell>
        <mxCell id="191" value="10 days" style="strokeColor=#DEEDFF" parent="1" vertex="1">
          <mxGeometry x="446.5000000000028" y="880.0000000000035" width="80.00000000000028" height="20" as="geometry" />
        </mxCell>
        <mxCell id="192" value="22/08/2023" style="strokeColor=#DEEDFF" parent="1" vertex="1">
          <mxGeometry x="526.5000000000031" y="880.0000000000035" width="80.00000000000028" height="20" as="geometry" />
        </mxCell>
        <mxCell id="193" value="31/08/2023" style="strokeColor=#DEEDFF" parent="1" vertex="1">
          <mxGeometry x="606.5000000000026" y="880.0000000000039" width="80.00000000000028" height="20" as="geometry" />
        </mxCell>
        <mxCell id="194" value="" style="strokeColor=#DEEDFF" parent="1" vertex="1">
          <mxGeometry x="706.5" y="380" width="20" height="680" as="geometry" />
        </mxCell>
        <mxCell id="195" value="" style="strokeColor=#DEEDFF" parent="1" vertex="1">
          <mxGeometry x="726.5" y="380" width="20" height="680" as="geometry" />
        </mxCell>
        <mxCell id="196" value="" style="strokeColor=#DEEDFF" parent="1" vertex="1">
          <mxGeometry x="746.5" y="380" width="20" height="680" as="geometry" />
        </mxCell>
        <mxCell id="197" value="" style="strokeColor=#DEEDFF" parent="1" vertex="1">
          <mxGeometry x="766.5" y="380" width="20" height="680" as="geometry" />
        </mxCell>
        <mxCell id="198" value="" style="strokeColor=#DEEDFF;fillColor=#D4E1FF" parent="1" vertex="1">
          <mxGeometry x="786.5" y="380" width="20" height="680" as="geometry" />
        </mxCell>
        <mxCell id="199" value="" style="strokeColor=#DEEDFF;fillColor=#D4E1FF" parent="1" vertex="1">
          <mxGeometry x="806.5" y="380" width="20" height="680" as="geometry" />
        </mxCell>
        <mxCell id="200" value="" style="strokeColor=#DEEDFF" parent="1" vertex="1">
          <mxGeometry x="826.5" y="380" width="20" height="680" as="geometry" />
        </mxCell>
        <mxCell id="201" value="" style="strokeColor=#DEEDFF" parent="1" vertex="1">
          <mxGeometry x="846.5" y="380" width="20" height="680" as="geometry" />
        </mxCell>
        <mxCell id="202" value="" style="strokeColor=#DEEDFF" parent="1" vertex="1">
          <mxGeometry x="866.5" y="380" width="20" height="680" as="geometry" />
        </mxCell>
        <mxCell id="203" value="" style="strokeColor=#DEEDFF" parent="1" vertex="1">
          <mxGeometry x="886.5" y="380" width="20" height="680" as="geometry" />
        </mxCell>
        <mxCell id="204" value="" style="strokeColor=#DEEDFF" parent="1" vertex="1">
          <mxGeometry x="906.5" y="380" width="20" height="680" as="geometry" />
        </mxCell>
        <mxCell id="205" value="" style="strokeColor=#DEEDFF;fillColor=#D4E1FF" parent="1" vertex="1">
          <mxGeometry x="926.5" y="380" width="20" height="680" as="geometry" />
        </mxCell>
        <mxCell id="206" value="" style="strokeColor=#DEEDFF;fillColor=#D4E1FF" parent="1" vertex="1">
          <mxGeometry x="946.5" y="380" width="20" height="680" as="geometry" />
        </mxCell>
        <mxCell id="207" value="" style="strokeColor=#DEEDFF" parent="1" vertex="1">
          <mxGeometry x="966.5" y="380" width="20" height="680" as="geometry" />
        </mxCell>
        <mxCell id="208" value="" style="strokeColor=#DEEDFF" parent="1" vertex="1">
          <mxGeometry x="986.5" y="380" width="20" height="680" as="geometry" />
        </mxCell>
        <mxCell id="209" value="" style="strokeColor=#DEEDFF" parent="1" vertex="1">
          <mxGeometry x="1006.5" y="380" width="20" height="680" as="geometry" />
        </mxCell>
        <mxCell id="210" value="" style="strokeColor=#DEEDFF" parent="1" vertex="1">
          <mxGeometry x="1026.5" y="380" width="20" height="680" as="geometry" />
        </mxCell>
        <mxCell id="211" value="" style="strokeColor=#DEEDFF" parent="1" vertex="1">
          <mxGeometry x="1046.5" y="380" width="20" height="680" as="geometry" />
        </mxCell>
        <mxCell id="212" value="" style="strokeColor=#DEEDFF;fillColor=#D4E1FF" parent="1" vertex="1">
          <mxGeometry x="1066.5" y="380" width="20" height="680" as="geometry" />
        </mxCell>
        <mxCell id="213" value="" style="strokeColor=#DEEDFF;fillColor=#D4E1FF" parent="1" vertex="1">
          <mxGeometry x="1086.5" y="380" width="20" height="680" as="geometry" />
        </mxCell>
        <mxCell id="214" value="" style="strokeColor=#DEEDFF" parent="1" vertex="1">
          <mxGeometry x="1106.5" y="380" width="20" height="680" as="geometry" />
        </mxCell>
        <mxCell id="215" value="" style="strokeColor=#DEEDFF" parent="1" vertex="1">
          <mxGeometry x="1126.5" y="380" width="20" height="680" as="geometry" />
        </mxCell>
        <mxCell id="216" value="" style="strokeColor=#DEEDFF" parent="1" vertex="1">
          <mxGeometry x="1146.5" y="380" width="20" height="680" as="geometry" />
        </mxCell>
        <mxCell id="217" value="" style="strokeColor=#DEEDFF" parent="1" vertex="1">
          <mxGeometry x="1166.5" y="380" width="20" height="680" as="geometry" />
        </mxCell>
        <mxCell id="218" value="" style="strokeColor=#DEEDFF" parent="1" vertex="1">
          <mxGeometry x="1186.5" y="380" width="20" height="680" as="geometry" />
        </mxCell>
        <mxCell id="219" value="" style="strokeColor=#DEEDFF;fillColor=#D4E1FF" parent="1" vertex="1">
          <mxGeometry x="1206.5" y="380" width="20" height="680" as="geometry" />
        </mxCell>
        <mxCell id="220" value="" style="strokeColor=#DEEDFF;fillColor=#D4E1FF" parent="1" vertex="1">
          <mxGeometry x="1226.5" y="380" width="20" height="680" as="geometry" />
        </mxCell>
        <mxCell id="221" value="" style="strokeColor=#DEEDFF" parent="1" vertex="1">
          <mxGeometry x="1246.5" y="380" width="20" height="680" as="geometry" />
        </mxCell>
        <mxCell id="222" value="" style="strokeColor=#DEEDFF" parent="1" vertex="1">
          <mxGeometry x="1266.5" y="380" width="20" height="680" as="geometry" />
        </mxCell>
        <mxCell id="223" value="" style="strokeColor=#DEEDFF" parent="1" vertex="1">
          <mxGeometry x="1286.5" y="380" width="20" height="680" as="geometry" />
        </mxCell>
        <mxCell id="224" value="" style="strokeColor=#DEEDFF" parent="1" vertex="1">
          <mxGeometry x="1306.5" y="380" width="20" height="680" as="geometry" />
        </mxCell>
        <mxCell id="225" value="" style="strokeColor=#DEEDFF" parent="1" vertex="1">
          <mxGeometry x="1326.5" y="380" width="20" height="680" as="geometry" />
        </mxCell>
        <mxCell id="226" value="" style="strokeColor=#DEEDFF;fillColor=#D4E1FF" parent="1" vertex="1">
          <mxGeometry x="1346.5" y="380" width="20" height="680" as="geometry" />
        </mxCell>
        <mxCell id="227" value="" style="strokeColor=#DEEDFF;fillColor=#D4E1FF" parent="1" vertex="1">
          <mxGeometry x="1366.5" y="380" width="20" height="680" as="geometry" />
        </mxCell>
        <mxCell id="228" value="" style="strokeColor=#DEEDFF" parent="1" vertex="1">
          <mxGeometry x="1386.5" y="380" width="20" height="680" as="geometry" />
        </mxCell>
        <mxCell id="229" value="" style="strokeColor=#DEEDFF" parent="1" vertex="1">
          <mxGeometry x="1406.5" y="380" width="20" height="680" as="geometry" />
        </mxCell>
        <mxCell id="230" value="" style="strokeColor=#DEEDFF" parent="1" vertex="1">
          <mxGeometry x="1426.5" y="380" width="20" height="680" as="geometry" />
        </mxCell>
        <mxCell id="231" value="" style="strokeColor=#DEEDFF" parent="1" vertex="1">
          <mxGeometry x="1446.5" y="380" width="20" height="680" as="geometry" />
        </mxCell>
        <mxCell id="232" value="" style="strokeColor=#DEEDFF" parent="1" vertex="1">
          <mxGeometry x="1466.5" y="380" width="20" height="680" as="geometry" />
        </mxCell>
        <mxCell id="233" value="" style="strokeColor=#DEEDFF;fillColor=#D4E1FF" parent="1" vertex="1">
          <mxGeometry x="1486.5" y="380" width="20" height="680" as="geometry" />
        </mxCell>
        <mxCell id="234" value="" style="strokeColor=#DEEDFF;fillColor=#D4E1FF" parent="1" vertex="1">
          <mxGeometry x="1506.5" y="380" width="20" height="680" as="geometry" />
        </mxCell>
        <mxCell id="235" value="" style="strokeColor=#DEEDFF" parent="1" vertex="1">
          <mxGeometry x="1526.5" y="380" width="20" height="680" as="geometry" />
        </mxCell>
        <mxCell id="236" value="" style="strokeColor=#DEEDFF" parent="1" vertex="1">
          <mxGeometry x="1546.5" y="380" width="20" height="680" as="geometry" />
        </mxCell>
        <mxCell id="237" value="" style="strokeColor=#DEEDFF" parent="1" vertex="1">
          <mxGeometry x="1566.5" y="380" width="20" height="680" as="geometry" />
        </mxCell>
        <mxCell id="238" value="" style="strokeColor=#DEEDFF" parent="1" vertex="1">
          <mxGeometry x="1586.5" y="380" width="20" height="680" as="geometry" />
        </mxCell>
        <mxCell id="239" value="" style="strokeColor=#DEEDFF" parent="1" vertex="1">
          <mxGeometry x="1606.5" y="380" width="20" height="680" as="geometry" />
        </mxCell>
        <mxCell id="240" value="" style="strokeColor=#DEEDFF;fillColor=#D4E1FF" parent="1" vertex="1">
          <mxGeometry x="1626.5" y="380" width="20" height="680" as="geometry" />
        </mxCell>
        <mxCell id="241" value="" style="strokeColor=#DEEDFF;fillColor=#D4E1FF" parent="1" vertex="1">
          <mxGeometry x="1646.5" y="380" width="20" height="680" as="geometry" />
        </mxCell>
        <mxCell id="2" value="Task Name" style="fillColor=#23445D;strokeColor=#FFFFFF;strokeWidth=2;fontColor=#FFFFFF;fontStyle=1" parent="1" vertex="1">
          <mxGeometry x="126.5" y="340" width="320" height="40" as="geometry" />
        </mxCell>
        <mxCell id="3" value="" style="fillColor=#23445D;strokeColor=#FFFFFF;strokeWidth=2;fontColor=#FFFFFF;fontStyle=1" parent="1" vertex="1">
          <mxGeometry x="86.5" y="340" width="40" height="40" as="geometry" />
        </mxCell>
        <mxCell id="4" value="31 July - 06 AugÂ " style="fillColor=#23445D;strokeColor=#FFFFFF;strokeWidth=2;fontColor=#FFFFFF;fontStyle=1" parent="1" vertex="1">
          <mxGeometry x="686.5000000000018" y="340.0000000000001" width="140" height="20" as="geometry" />
        </mxCell>
        <mxCell id="5" value="M" style="fillColor=#23445D;strokeColor=#FFFFFF;strokeWidth=2;fontColor=#FFFFFF;fontStyle=1" parent="1" vertex="1">
          <mxGeometry x="686.5000000000018" y="360.0000000000001" width="20" height="20" as="geometry" />
        </mxCell>
        <mxCell id="6" value="T" style="fillColor=#23445D;strokeColor=#FFFFFF;strokeWidth=2;fontColor=#FFFFFF;fontStyle=1" parent="1" vertex="1">
          <mxGeometry x="706.5000000000018" y="360.0000000000001" width="20" height="20" as="geometry" />
        </mxCell>
        <mxCell id="7" value="W" style="fillColor=#23445D;strokeColor=#FFFFFF;strokeWidth=2;fontColor=#FFFFFF;fontStyle=1" parent="1" vertex="1">
          <mxGeometry x="726.5000000000018" y="360.0000000000001" width="20" height="20" as="geometry" />
        </mxCell>
        <mxCell id="8" value="T" style="fillColor=#23445D;strokeColor=#FFFFFF;strokeWidth=2;fontColor=#FFFFFF;fontStyle=1" parent="1" vertex="1">
          <mxGeometry x="746.5000000000018" y="360.0000000000001" width="20" height="20" as="geometry" />
        </mxCell>
        <mxCell id="9" value="F" style="fillColor=#23445D;strokeColor=#FFFFFF;strokeWidth=2;fontColor=#FFFFFF;fontStyle=1" parent="1" vertex="1">
          <mxGeometry x="766.5000000000016" y="360.0000000000001" width="20" height="20" as="geometry" />
        </mxCell>
        <mxCell id="10" value="S" style="fillColor=#23445D;strokeColor=#FFFFFF;strokeWidth=2;fontColor=#FFFFFF;fontStyle=1" parent="1" vertex="1">
          <mxGeometry x="786.5000000000016" y="360.0000000000001" width="20" height="20" as="geometry" />
        </mxCell>
        <mxCell id="11" value="S" style="fillColor=#23445D;strokeColor=#FFFFFF;strokeWidth=2;fontColor=#FFFFFF;fontStyle=1" parent="1" vertex="1">
          <mxGeometry x="806.5000000000016" y="360.0000000000001" width="20" height="20" as="geometry" />
        </mxCell>
        <mxCell id="12" value="Duration" style="fillColor=#23445D;strokeColor=#FFFFFF;strokeWidth=2;fontColor=#FFFFFF;fontStyle=1" parent="1" vertex="1">
          <mxGeometry x="446.50000000000176" y="340.00000000000006" width="80.00000000000006" height="40.00000000000001" as="geometry" />
        </mxCell>
        <mxCell id="13" value="Start" style="fillColor=#23445D;strokeColor=#FFFFFF;strokeWidth=2;fontColor=#FFFFFF;fontStyle=1" parent="1" vertex="1">
          <mxGeometry x="526.5000000000018" y="340.00000000000006" width="80.00000000000006" height="40.00000000000001" as="geometry" />
        </mxCell>
        <mxCell id="14" value="ETA" style="fillColor=#23445D;strokeColor=#FFFFFF;strokeWidth=2;fontColor=#FFFFFF;fontStyle=1" parent="1" vertex="1">
          <mxGeometry x="606.5000000000019" y="340.0000000000001" width="80.00000000000006" height="40.00000000000001" as="geometry" />
        </mxCell>
        <mxCell id="15" value="07 - 13 Aug" style="fillColor=#23445D;strokeColor=#FFFFFF;strokeWidth=2;fontColor=#FFFFFF;fontStyle=1" parent="1" vertex="1">
          <mxGeometry x="826.5000000000018" y="340.0000000000001" width="140" height="20" as="geometry" />
        </mxCell>
        <mxCell id="16" value="M" style="fillColor=#23445D;strokeColor=#FFFFFF;strokeWidth=2;fontColor=#FFFFFF;fontStyle=1" parent="1" vertex="1">
          <mxGeometry x="826.5000000000018" y="360.0000000000001" width="20" height="20" as="geometry" />
        </mxCell>
        <mxCell id="17" value="T" style="fillColor=#23445D;strokeColor=#FFFFFF;strokeWidth=2;fontColor=#FFFFFF;fontStyle=1" parent="1" vertex="1">
          <mxGeometry x="846.5000000000018" y="360.0000000000001" width="20" height="20" as="geometry" />
        </mxCell>
        <mxCell id="18" value="W" style="fillColor=#23445D;strokeColor=#FFFFFF;strokeWidth=2;fontColor=#FFFFFF;fontStyle=1" parent="1" vertex="1">
          <mxGeometry x="866.5000000000018" y="360.0000000000001" width="20" height="20" as="geometry" />
        </mxCell>
        <mxCell id="19" value="T" style="fillColor=#23445D;strokeColor=#FFFFFF;strokeWidth=2;fontColor=#FFFFFF;fontStyle=1" parent="1" vertex="1">
          <mxGeometry x="886.5000000000018" y="360.0000000000001" width="20" height="20" as="geometry" />
        </mxCell>
        <mxCell id="20" value="F" style="fillColor=#23445D;strokeColor=#FFFFFF;strokeWidth=2;fontColor=#FFFFFF;fontStyle=1" parent="1" vertex="1">
          <mxGeometry x="906.5000000000016" y="360.0000000000001" width="20" height="20" as="geometry" />
        </mxCell>
        <mxCell id="21" value="S" style="fillColor=#23445D;strokeColor=#FFFFFF;strokeWidth=2;fontColor=#FFFFFF;fontStyle=1" parent="1" vertex="1">
          <mxGeometry x="926.5000000000016" y="360.0000000000001" width="20" height="20" as="geometry" />
        </mxCell>
        <mxCell id="22" value="S" style="fillColor=#23445D;strokeColor=#FFFFFF;strokeWidth=2;fontColor=#FFFFFF;fontStyle=1" parent="1" vertex="1">
          <mxGeometry x="946.5000000000016" y="360.0000000000001" width="20" height="20" as="geometry" />
        </mxCell>
        <mxCell id="23" value="14 - 20 Aug" style="fillColor=#23445D;strokeColor=#FFFFFF;strokeWidth=2;fontColor=#FFFFFF;fontStyle=1" parent="1" vertex="1">
          <mxGeometry x="966.5000000000018" y="340.00000000000006" width="140" height="20" as="geometry" />
        </mxCell>
        <mxCell id="24" value="M" style="fillColor=#23445D;strokeColor=#FFFFFF;strokeWidth=2;fontColor=#FFFFFF;fontStyle=1" parent="1" vertex="1">
          <mxGeometry x="966.5000000000018" y="360.00000000000006" width="20" height="20" as="geometry" />
        </mxCell>
        <mxCell id="25" value="T" style="fillColor=#23445D;strokeColor=#FFFFFF;strokeWidth=2;fontColor=#FFFFFF;fontStyle=1" parent="1" vertex="1">
          <mxGeometry x="986.5000000000018" y="360.00000000000006" width="20" height="20" as="geometry" />
        </mxCell>
        <mxCell id="26" value="W" style="fillColor=#23445D;strokeColor=#FFFFFF;strokeWidth=2;fontColor=#FFFFFF;fontStyle=1" parent="1" vertex="1">
          <mxGeometry x="1006.5000000000018" y="360.00000000000006" width="20" height="20" as="geometry" />
        </mxCell>
        <mxCell id="27" value="T" style="fillColor=#23445D;strokeColor=#FFFFFF;strokeWidth=2;fontColor=#FFFFFF;fontStyle=1" parent="1" vertex="1">
          <mxGeometry x="1026.5000000000018" y="360.00000000000006" width="20" height="20" as="geometry" />
        </mxCell>
        <mxCell id="28" value="F" style="fillColor=#23445D;strokeColor=#FFFFFF;strokeWidth=2;fontColor=#FFFFFF;fontStyle=1" parent="1" vertex="1">
          <mxGeometry x="1046.5000000000016" y="360.00000000000006" width="20" height="20" as="geometry" />
        </mxCell>
        <mxCell id="29" value="S" style="fillColor=#23445D;strokeColor=#FFFFFF;strokeWidth=2;fontColor=#FFFFFF;fontStyle=1" parent="1" vertex="1">
          <mxGeometry x="1066.5000000000016" y="360.00000000000006" width="20" height="20" as="geometry" />
        </mxCell>
        <mxCell id="30" value="S" style="fillColor=#23445D;strokeColor=#FFFFFF;strokeWidth=2;fontColor=#FFFFFF;fontStyle=1" parent="1" vertex="1">
          <mxGeometry x="1086.5000000000016" y="360.00000000000006" width="20" height="20" as="geometry" />
        </mxCell>
        <mxCell id="31" value="21 - 27 Aug" style="fillColor=#23445D;strokeColor=#FFFFFF;strokeWidth=2;fontColor=#FFFFFF;fontStyle=1" parent="1" vertex="1">
          <mxGeometry x="1106.5000000000018" y="340.00000000000006" width="140" height="20" as="geometry" />
        </mxCell>
        <mxCell id="32" value="M" style="fillColor=#23445D;strokeColor=#FFFFFF;strokeWidth=2;fontColor=#FFFFFF;fontStyle=1" parent="1" vertex="1">
          <mxGeometry x="1106.5000000000018" y="360.00000000000006" width="20" height="20" as="geometry" />
        </mxCell>
        <mxCell id="33" value="T" style="fillColor=#23445D;strokeColor=#FFFFFF;strokeWidth=2;fontColor=#FFFFFF;fontStyle=1" parent="1" vertex="1">
          <mxGeometry x="1126.5000000000018" y="360.00000000000006" width="20" height="20" as="geometry" />
        </mxCell>
        <mxCell id="34" value="W" style="fillColor=#23445D;strokeColor=#FFFFFF;strokeWidth=2;fontColor=#FFFFFF;fontStyle=1" parent="1" vertex="1">
          <mxGeometry x="1146.5000000000018" y="360.00000000000006" width="20" height="20" as="geometry" />
        </mxCell>
        <mxCell id="35" value="T" style="fillColor=#23445D;strokeColor=#FFFFFF;strokeWidth=2;fontColor=#FFFFFF;fontStyle=1" parent="1" vertex="1">
          <mxGeometry x="1166.5000000000018" y="360.00000000000006" width="20" height="20" as="geometry" />
        </mxCell>
        <mxCell id="36" value="F" style="fillColor=#23445D;strokeColor=#FFFFFF;strokeWidth=2;fontColor=#FFFFFF;fontStyle=1" parent="1" vertex="1">
          <mxGeometry x="1186.5000000000016" y="360" width="20" height="20" as="geometry" />
        </mxCell>
        <mxCell id="37" value="S" style="fillColor=#23445D;strokeColor=#FFFFFF;strokeWidth=2;fontColor=#FFFFFF;fontStyle=1" parent="1" vertex="1">
          <mxGeometry x="1206.5000000000016" y="360" width="20" height="20" as="geometry" />
        </mxCell>
        <mxCell id="38" value="S" style="fillColor=#23445D;strokeColor=#FFFFFF;strokeWidth=2;fontColor=#FFFFFF;fontStyle=1" parent="1" vertex="1">
          <mxGeometry x="1226.5000000000016" y="360" width="20" height="20" as="geometry" />
        </mxCell>
        <mxCell id="39" value="28 Aug - 03 Sep" style="fillColor=#23445D;strokeColor=#FFFFFF;strokeWidth=2;fontColor=#FFFFFF;fontStyle=1" parent="1" vertex="1">
          <mxGeometry x="1246.5000000000018" y="340.00000000000006" width="140" height="20" as="geometry" />
        </mxCell>
        <mxCell id="40" value="M" style="fillColor=#23445D;strokeColor=#FFFFFF;strokeWidth=2;fontColor=#FFFFFF;fontStyle=1" parent="1" vertex="1">
          <mxGeometry x="1246.5000000000018" y="360.00000000000006" width="20" height="20" as="geometry" />
        </mxCell>
        <mxCell id="41" value="T" style="fillColor=#23445D;strokeColor=#FFFFFF;strokeWidth=2;fontColor=#FFFFFF;fontStyle=1" parent="1" vertex="1">
          <mxGeometry x="1266.5000000000018" y="360.00000000000006" width="20" height="20" as="geometry" />
        </mxCell>
        <mxCell id="42" value="W" style="fillColor=#23445D;strokeColor=#FFFFFF;strokeWidth=2;fontColor=#FFFFFF;fontStyle=1" parent="1" vertex="1">
          <mxGeometry x="1286.5000000000018" y="360.00000000000006" width="20" height="20" as="geometry" />
        </mxCell>
        <mxCell id="43" value="T" style="fillColor=#23445D;strokeColor=#FFFFFF;strokeWidth=2;fontColor=#FFFFFF;fontStyle=1" parent="1" vertex="1">
          <mxGeometry x="1306.5000000000018" y="360.00000000000006" width="20" height="20" as="geometry" />
        </mxCell>
        <mxCell id="44" value="F" style="fillColor=#23445D;strokeColor=#FFFFFF;strokeWidth=2;fontColor=#FFFFFF;fontStyle=1" parent="1" vertex="1">
          <mxGeometry x="1326.5000000000016" y="360" width="20" height="20" as="geometry" />
        </mxCell>
        <mxCell id="45" value="S" style="fillColor=#23445D;strokeColor=#FFFFFF;strokeWidth=2;fontColor=#FFFFFF;fontStyle=1" parent="1" vertex="1">
          <mxGeometry x="1346.5000000000016" y="360" width="20" height="20" as="geometry" />
        </mxCell>
        <mxCell id="46" value="S" style="fillColor=#23445D;strokeColor=#FFFFFF;strokeWidth=2;fontColor=#FFFFFF;fontStyle=1" parent="1" vertex="1">
          <mxGeometry x="1366.5000000000016" y="360" width="20" height="20" as="geometry" />
        </mxCell>
        <mxCell id="47" value="04 Sep - 10 SepÂ " style="fillColor=#23445D;strokeColor=#FFFFFF;strokeWidth=2;fontColor=#FFFFFF;fontStyle=1" parent="1" vertex="1">
          <mxGeometry x="1386.5000000000018" y="340" width="140" height="20" as="geometry" />
        </mxCell>
        <mxCell id="48" value="M" style="fillColor=#23445D;strokeColor=#FFFFFF;strokeWidth=2;fontColor=#FFFFFF;fontStyle=1" parent="1" vertex="1">
          <mxGeometry x="1386.5000000000018" y="360" width="20" height="20" as="geometry" />
        </mxCell>
        <mxCell id="49" value="T" style="fillColor=#23445D;strokeColor=#FFFFFF;strokeWidth=2;fontColor=#FFFFFF;fontStyle=1" parent="1" vertex="1">
          <mxGeometry x="1406.5000000000018" y="360" width="20" height="20" as="geometry" />
        </mxCell>
        <mxCell id="50" value="W" style="fillColor=#23445D;strokeColor=#FFFFFF;strokeWidth=2;fontColor=#FFFFFF;fontStyle=1" parent="1" vertex="1">
          <mxGeometry x="1426.5000000000018" y="360" width="20" height="20" as="geometry" />
        </mxCell>
        <mxCell id="51" value="T" style="fillColor=#23445D;strokeColor=#FFFFFF;strokeWidth=2;fontColor=#FFFFFF;fontStyle=1" parent="1" vertex="1">
          <mxGeometry x="1446.5000000000018" y="360" width="20" height="20" as="geometry" />
        </mxCell>
        <mxCell id="52" value="F" style="fillColor=#23445D;strokeColor=#FFFFFF;strokeWidth=2;fontColor=#FFFFFF;fontStyle=1" parent="1" vertex="1">
          <mxGeometry x="1466.5000000000016" y="360" width="20" height="20" as="geometry" />
        </mxCell>
        <mxCell id="53" value="S" style="fillColor=#23445D;strokeColor=#FFFFFF;strokeWidth=2;fontColor=#FFFFFF;fontStyle=1" parent="1" vertex="1">
          <mxGeometry x="1486.5000000000016" y="360" width="20" height="20" as="geometry" />
        </mxCell>
        <mxCell id="54" value="S" style="fillColor=#23445D;strokeColor=#FFFFFF;strokeWidth=2;fontColor=#FFFFFF;fontStyle=1" parent="1" vertex="1">
          <mxGeometry x="1506.5000000000016" y="360" width="20" height="20" as="geometry" />
        </mxCell>
        <mxCell id="55" value="11 Sep - 17 Sep" style="fillColor=#23445D;strokeColor=#FFFFFF;strokeWidth=2;fontColor=#FFFFFF;fontStyle=1" parent="1" vertex="1">
          <mxGeometry x="1526.5000000000018" y="340.0000000000001" width="140" height="20" as="geometry" />
        </mxCell>
        <mxCell id="56" value="M" style="fillColor=#23445D;strokeColor=#FFFFFF;strokeWidth=2;fontColor=#FFFFFF;fontStyle=1" parent="1" vertex="1">
          <mxGeometry x="1526.5000000000018" y="360.0000000000001" width="20" height="20" as="geometry" />
        </mxCell>
        <mxCell id="57" value="T" style="fillColor=#23445D;strokeColor=#FFFFFF;strokeWidth=2;fontColor=#FFFFFF;fontStyle=1" parent="1" vertex="1">
          <mxGeometry x="1546.5000000000018" y="360.0000000000001" width="20" height="20" as="geometry" />
        </mxCell>
        <mxCell id="58" value="W" style="fillColor=#23445D;strokeColor=#FFFFFF;strokeWidth=2;fontColor=#FFFFFF;fontStyle=1" parent="1" vertex="1">
          <mxGeometry x="1566.5000000000018" y="360.0000000000001" width="20" height="20" as="geometry" />
        </mxCell>
        <mxCell id="59" value="T" style="fillColor=#23445D;strokeColor=#FFFFFF;strokeWidth=2;fontColor=#FFFFFF;fontStyle=1" parent="1" vertex="1">
          <mxGeometry x="1586.5000000000018" y="360.0000000000001" width="20" height="20" as="geometry" />
        </mxCell>
        <mxCell id="60" value="F" style="fillColor=#23445D;strokeColor=#FFFFFF;strokeWidth=2;fontColor=#FFFFFF;fontStyle=1" parent="1" vertex="1">
          <mxGeometry x="1606.5000000000016" y="360.0000000000001" width="20" height="20" as="geometry" />
        </mxCell>
        <mxCell id="61" value="S" style="fillColor=#23445D;strokeColor=#FFFFFF;strokeWidth=2;fontColor=#FFFFFF;fontStyle=1" parent="1" vertex="1">
          <mxGeometry x="1626.5000000000016" y="360.0000000000001" width="20" height="20" as="geometry" />
        </mxCell>
        <mxCell id="62" value="S" style="fillColor=#23445D;strokeColor=#FFFFFF;strokeWidth=2;fontColor=#FFFFFF;fontStyle=1" parent="1" vertex="1">
          <mxGeometry x="1646.5000000000016" y="360.0000000000001" width="20" height="20" as="geometry" />
        </mxCell>
        <mxCell id="254" value="" style="shape=mxgraph.flowchart.process;fillColor=#AE4132;strokeColor=#000000;strokeWidth=2;opacity=100" parent="1" vertex="1">
          <mxGeometry x="686.5" y="380" width="23.5" height="20" as="geometry" />
        </mxCell>
        <mxCell id="BJyjRw2u1usJgPKZbhh1-279" value="" style="strokeColor=#DEEDFF" vertex="1" parent="1">
          <mxGeometry x="1666.5" y="360" width="20" height="700" as="geometry" />
        </mxCell>
        <mxCell id="BJyjRw2u1usJgPKZbhh1-280" value="" style="strokeColor=#DEEDFF" vertex="1" parent="1">
          <mxGeometry x="1686.5" y="360" width="20" height="700" as="geometry" />
        </mxCell>
        <mxCell id="BJyjRw2u1usJgPKZbhh1-281" value="" style="strokeColor=#DEEDFF" vertex="1" parent="1">
          <mxGeometry x="1706.5" y="360" width="20" height="700" as="geometry" />
        </mxCell>
        <mxCell id="BJyjRw2u1usJgPKZbhh1-282" value="" style="strokeColor=#DEEDFF" vertex="1" parent="1">
          <mxGeometry x="1726.5" y="360" width="20" height="700" as="geometry" />
        </mxCell>
        <mxCell id="BJyjRw2u1usJgPKZbhh1-283" value="" style="strokeColor=#DEEDFF;fillColor=#D4E1FF" vertex="1" parent="1">
          <mxGeometry x="1786.5" y="359" width="20" height="700" as="geometry" />
        </mxCell>
        <mxCell id="BJyjRw2u1usJgPKZbhh1-284" value="" style="strokeColor=#DEEDFF;fillColor=#D4E1FF" vertex="1" parent="1">
          <mxGeometry x="1766.5" y="360" width="20" height="700" as="geometry" />
        </mxCell>
        <mxCell id="BJyjRw2u1usJgPKZbhh1-285" value="T" style="fillColor=#23445D;strokeColor=#FFFFFF;strokeWidth=2;fontColor=#FFFFFF;fontStyle=1" vertex="1" parent="1">
          <mxGeometry x="1686.5000000000018" y="360.0000000000001" width="20" height="20" as="geometry" />
        </mxCell>
        <mxCell id="BJyjRw2u1usJgPKZbhh1-286" value="W" style="fillColor=#23445D;strokeColor=#FFFFFF;strokeWidth=2;fontColor=#FFFFFF;fontStyle=1" vertex="1" parent="1">
          <mxGeometry x="1706.5000000000018" y="360.0000000000001" width="20" height="20" as="geometry" />
        </mxCell>
        <mxCell id="BJyjRw2u1usJgPKZbhh1-287" value="T" style="fillColor=#23445D;strokeColor=#FFFFFF;strokeWidth=2;fontColor=#FFFFFF;fontStyle=1" vertex="1" parent="1">
          <mxGeometry x="1726.5000000000018" y="360.0000000000001" width="20" height="20" as="geometry" />
        </mxCell>
        <mxCell id="BJyjRw2u1usJgPKZbhh1-288" value="F" style="fillColor=#23445D;strokeColor=#FFFFFF;strokeWidth=2;fontColor=#FFFFFF;fontStyle=1" vertex="1" parent="1">
          <mxGeometry x="1746.5000000000016" y="360.0000000000001" width="20" height="20" as="geometry" />
        </mxCell>
        <mxCell id="BJyjRw2u1usJgPKZbhh1-289" value="S" style="fillColor=#23445D;strokeColor=#FFFFFF;strokeWidth=2;fontColor=#FFFFFF;fontStyle=1" vertex="1" parent="1">
          <mxGeometry x="1766.5000000000016" y="360.0000000000001" width="20" height="20" as="geometry" />
        </mxCell>
        <mxCell id="BJyjRw2u1usJgPKZbhh1-290" value="S" style="fillColor=#23445D;strokeColor=#FFFFFF;strokeWidth=2;fontColor=#FFFFFF;fontStyle=1" vertex="1" parent="1">
          <mxGeometry x="1786.5" y="360" width="23.5" height="20" as="geometry" />
        </mxCell>
        <mxCell id="BJyjRw2u1usJgPKZbhh1-298" value="" style="shape=mxgraph.flowchart.process;fillColor=#AE4132;strokeColor=#000000;strokeWidth=2;opacity=100" vertex="1" parent="1">
          <mxGeometry x="686.5" y="400" width="83.5" height="20" as="geometry" />
        </mxCell>
        <mxCell id="BJyjRw2u1usJgPKZbhh1-299" value="" style="shape=mxgraph.flowchart.process;fillColor=#AE4132;strokeColor=#000000;strokeWidth=2;opacity=100" vertex="1" parent="1">
          <mxGeometry x="746.5" y="420" width="23.5" height="20" as="geometry" />
        </mxCell>
        <mxCell id="BJyjRw2u1usJgPKZbhh1-300" value="" style="shape=mxgraph.flowchart.process;fillColor=#AE4132;strokeColor=#000000;strokeWidth=2;opacity=100" vertex="1" parent="1">
          <mxGeometry x="766.5" y="440" width="23.5" height="20" as="geometry" />
        </mxCell>
        <mxCell id="BJyjRw2u1usJgPKZbhh1-302" value="Testing Phase" style="align=left;strokeColor=#DEEDFF" vertex="1" parent="1">
          <mxGeometry x="126.50000000000111" y="900.0000000000034" width="319.99999999999886" height="20" as="geometry" />
        </mxCell>
        <mxCell id="BJyjRw2u1usJgPKZbhh1-303" value="3 daysÂ Â Â Â " style="strokeColor=#DEEDFF" vertex="1" parent="1">
          <mxGeometry x="446.50000000000284" y="900.0000000000033" width="80.00000000000028" height="20" as="geometry" />
        </mxCell>
        <mxCell id="BJyjRw2u1usJgPKZbhh1-304" value="01/09/2023" style="strokeColor=#DEEDFF" vertex="1" parent="1">
          <mxGeometry x="526.5000000000032" y="900.0000000000033" width="80.00000000000028" height="20" as="geometry" />
        </mxCell>
        <mxCell id="BJyjRw2u1usJgPKZbhh1-305" value="03/09/2023" style="strokeColor=#DEEDFF" vertex="1" parent="1">
          <mxGeometry x="606.5000000000026" y="900.0000000000036" width="80.00000000000028" height="20" as="geometry" />
        </mxCell>
        <mxCell id="BJyjRw2u1usJgPKZbhh1-306" value="Client and Supervisor meetingÂ " style="align=left;strokeColor=#DEEDFF" vertex="1" parent="1">
          <mxGeometry x="126.50000000000102" y="920.0000000000034" width="319.999999999999" height="20" as="geometry" />
        </mxCell>
        <mxCell id="BJyjRw2u1usJgPKZbhh1-307" value="1 day" style="strokeColor=#DEEDFF" vertex="1" parent="1">
          <mxGeometry x="446.5000000000028" y="920.0000000000033" width="80.00000000000028" height="20" as="geometry" />
        </mxCell>
        <mxCell id="BJyjRw2u1usJgPKZbhh1-308" value="05/09/2023" style="strokeColor=#DEEDFF" vertex="1" parent="1">
          <mxGeometry x="526.5000000000031" y="920.0000000000033" width="80.00000000000028" height="20" as="geometry" />
        </mxCell>
        <mxCell id="BJyjRw2u1usJgPKZbhh1-309" value="05/09/2023" style="strokeColor=#DEEDFF" vertex="1" parent="1">
          <mxGeometry x="606.5000000000026" y="920.0000000000036" width="80.00000000000028" height="20" as="geometry" />
        </mxCell>
        <mxCell id="BJyjRw2u1usJgPKZbhh1-310" value="User Manual" style="align=left;strokeColor=#DEEDFF" vertex="1" parent="1">
          <mxGeometry x="126.500000000001" y="960.0000000000036" width="319.999999999999" height="20" as="geometry" />
        </mxCell>
        <mxCell id="BJyjRw2u1usJgPKZbhh1-311" value="4 days" style="strokeColor=#DEEDFF" vertex="1" parent="1">
          <mxGeometry x="446.5000000000028" y="960.0000000000035" width="80.00000000000028" height="20" as="geometry" />
        </mxCell>
        <mxCell id="BJyjRw2u1usJgPKZbhh1-312" value="10/09/2023" style="strokeColor=#DEEDFF" vertex="1" parent="1">
          <mxGeometry x="526.5000000000031" y="960.0000000000035" width="80.00000000000028" height="20" as="geometry" />
        </mxCell>
        <mxCell id="BJyjRw2u1usJgPKZbhh1-313" value="13/09/2023" style="strokeColor=#DEEDFF" vertex="1" parent="1">
          <mxGeometry x="606.5000000000026" y="961.0000000000039" width="80.00000000000028" height="20" as="geometry" />
        </mxCell>
        <mxCell id="BJyjRw2u1usJgPKZbhh1-314" value="21" style="strokeColor=#DEEDFF" vertex="1" parent="1">
          <mxGeometry x="86.50000000000111" y="900.0000000000034" width="40" height="20" as="geometry" />
        </mxCell>
        <mxCell id="BJyjRw2u1usJgPKZbhh1-315" value="22" style="strokeColor=#DEEDFF" vertex="1" parent="1">
          <mxGeometry x="86.50000000000102" y="920.0000000000034" width="40" height="20" as="geometry" />
        </mxCell>
        <mxCell id="BJyjRw2u1usJgPKZbhh1-316" value="23" style="strokeColor=#DEEDFF" vertex="1" parent="1">
          <mxGeometry x="86.50000000000102" y="960.0000000000036" width="40" height="20" as="geometry" />
        </mxCell>
        <mxCell id="BJyjRw2u1usJgPKZbhh1-317" value="24" style="strokeColor=#DEEDFF" vertex="1" parent="1">
          <mxGeometry x="86.50000000000111" y="980.0000000000034" width="40" height="20" as="geometry" />
        </mxCell>
        <mxCell id="BJyjRw2u1usJgPKZbhh1-318" value="25" style="strokeColor=#DEEDFF" vertex="1" parent="1">
          <mxGeometry x="86.50000000000102" y="1000.0000000000034" width="40" height="20" as="geometry" />
        </mxCell>
        <mxCell id="BJyjRw2u1usJgPKZbhh1-319" value="26" style="strokeColor=#DEEDFF" vertex="1" parent="1">
          <mxGeometry x="86.50000000000102" y="1020.0000000000036" width="40" height="20" as="geometry" />
        </mxCell>
        <mxCell id="BJyjRw2u1usJgPKZbhh1-320" value="Final Demo with the clientÂ " style="align=left;strokeColor=#DEEDFF" vertex="1" parent="1">
          <mxGeometry x="126.50000000000111" y="1020.0000000000034" width="319.99999999999886" height="20" as="geometry" />
        </mxCell>
        <mxCell id="BJyjRw2u1usJgPKZbhh1-321" value="1 day" style="strokeColor=#DEEDFF" vertex="1" parent="1">
          <mxGeometry x="446.50000000000284" y="980.0000000000033" width="80.00000000000028" height="20" as="geometry" />
        </mxCell>
        <mxCell id="BJyjRw2u1usJgPKZbhh1-322" value="13/09/2023" style="strokeColor=#DEEDFF" vertex="1" parent="1">
          <mxGeometry x="526.5000000000032" y="980.0000000000033" width="80.00000000000028" height="20" as="geometry" />
        </mxCell>
        <mxCell id="BJyjRw2u1usJgPKZbhh1-323" value="Project ReportÂ " style="align=left;strokeColor=#DEEDFF" vertex="1" parent="1">
          <mxGeometry x="126.50000000000102" y="1000.0000000000034" width="319.999999999999" height="20" as="geometry" />
        </mxCell>
        <mxCell id="BJyjRw2u1usJgPKZbhh1-324" value="2 days" style="strokeColor=#DEEDFF" vertex="1" parent="1">
          <mxGeometry x="446.5000000000028" y="1000.0000000000033" width="80.00000000000028" height="20" as="geometry" />
        </mxCell>
        <mxCell id="BJyjRw2u1usJgPKZbhh1-325" value="14/09/2023" style="strokeColor=#DEEDFF" vertex="1" parent="1">
          <mxGeometry x="526.5000000000031" y="1000.0000000000033" width="80.00000000000028" height="20" as="geometry" />
        </mxCell>
        <mxCell id="BJyjRw2u1usJgPKZbhh1-326" value="Project Hand-inÂ " style="align=left;strokeColor=#DEEDFF" vertex="1" parent="1">
          <mxGeometry x="126.500000000001" y="1020.0000000000036" width="319.999999999999" height="20" as="geometry" />
        </mxCell>
        <mxCell id="BJyjRw2u1usJgPKZbhh1-327" value="" style="strokeColor=#DEEDFF" vertex="1" parent="1">
          <mxGeometry x="446.5000000000028" y="1020.0000000000036" width="80.00000000000028" height="20" as="geometry" />
        </mxCell>
        <mxCell id="BJyjRw2u1usJgPKZbhh1-328" value="" style="strokeColor=#DEEDFF" vertex="1" parent="1">
          <mxGeometry x="526.5000000000031" y="1020.0000000000036" width="80.00000000000028" height="20" as="geometry" />
        </mxCell>
        <mxCell id="BJyjRw2u1usJgPKZbhh1-332" value="13/09/2023" style="strokeColor=#DEEDFF" vertex="1" parent="1">
          <mxGeometry x="606.0000000000026" y="980.0000000000036" width="80.00000000000028" height="20" as="geometry" />
        </mxCell>
        <mxCell id="BJyjRw2u1usJgPKZbhh1-333" value="16/09/2023" style="strokeColor=#DEEDFF" vertex="1" parent="1">
          <mxGeometry x="606.0000000000026" y="1000.0000000000036" width="80.00000000000028" height="20" as="geometry" />
        </mxCell>
        <mxCell id="BJyjRw2u1usJgPKZbhh1-334" value="22/09/2023" style="strokeColor=#DEEDFF" vertex="1" parent="1">
          <mxGeometry x="606.5000000000026" y="1020.0000000000039" width="80.00000000000028" height="20" as="geometry" />
        </mxCell>
        <mxCell id="BJyjRw2u1usJgPKZbhh1-335" value="" style="shape=mxgraph.flowchart.process;fillColor=#AE4132;strokeColor=#000000;strokeWidth=2;opacity=100" vertex="1" parent="1">
          <mxGeometry x="766.5" y="460" width="23.5" height="20" as="geometry" />
        </mxCell>
        <mxCell id="BJyjRw2u1usJgPKZbhh1-337" value="" style="shape=mxgraph.flowchart.process;fillColor=#AE4132;strokeColor=#000000;strokeWidth=2;opacity=100" vertex="1" parent="1">
          <mxGeometry x="766.5" y="480" width="23.5" height="20" as="geometry" />
        </mxCell>
        <mxCell id="BJyjRw2u1usJgPKZbhh1-338" value="" style="shape=mxgraph.flowchart.process;fillColor=#B5739D;strokeColor=#000000;strokeWidth=2;opacity=100" vertex="1" parent="1">
          <mxGeometry x="787" y="500" width="40" height="20" as="geometry" />
        </mxCell>
        <mxCell id="BJyjRw2u1usJgPKZbhh1-339" value="Clarify Use Cases with the ClientÂ " style="align=left;strokeColor=#DEEDFF" vertex="1" parent="1">
          <mxGeometry x="126.50000000000028" y="580.000000000001" width="319.9999999999997" height="20" as="geometry" />
        </mxCell>
        <mxCell id="BJyjRw2u1usJgPKZbhh1-341" value="" style="shape=mxgraph.flowchart.process;fillColor=#B5739D;strokeColor=#000000;strokeWidth=2;opacity=100" vertex="1" parent="1">
          <mxGeometry x="807" y="541" width="19" height="20" as="geometry" />
        </mxCell>
        <mxCell id="BJyjRw2u1usJgPKZbhh1-343" value="" style="shape=mxgraph.flowchart.process;fillColor=#B5739D;strokeColor=#000000;strokeWidth=2;opacity=100" vertex="1" parent="1">
          <mxGeometry x="787" y="521" width="19" height="20" as="geometry" />
        </mxCell>
        <mxCell id="BJyjRw2u1usJgPKZbhh1-344" value="" style="shape=mxgraph.flowchart.process;fillColor=#B5739D;strokeColor=#000000;strokeWidth=2;opacity=100" vertex="1" parent="1">
          <mxGeometry x="826" y="561" width="63" height="20" as="geometry" />
        </mxCell>
        <mxCell id="BJyjRw2u1usJgPKZbhh1-345" value="" style="shape=mxgraph.flowchart.process;fillColor=#B5739D;strokeColor=#000000;strokeWidth=2;opacity=100" vertex="1" parent="1">
          <mxGeometry x="847" y="581" width="19" height="20" as="geometry" />
        </mxCell>
        <mxCell id="BJyjRw2u1usJgPKZbhh1-346" value="" style="shape=mxgraph.flowchart.process;fillColor=#B5739D;strokeColor=#000000;strokeWidth=2;opacity=100" vertex="1" parent="1">
          <mxGeometry x="887" y="598" width="19" height="20" as="geometry" />
        </mxCell>
        <mxCell id="BJyjRw2u1usJgPKZbhh1-347" value="" style="shape=mxgraph.flowchart.process;fillColor=#B5739D;strokeColor=#000000;strokeWidth=2;opacity=100" vertex="1" parent="1">
          <mxGeometry x="907" y="618" width="19" height="20" as="geometry" />
        </mxCell>
        <mxCell id="BJyjRw2u1usJgPKZbhh1-348" value="" style="shape=mxgraph.flowchart.process;fillColor=#B5739D;strokeColor=#000000;strokeWidth=2;opacity=100" vertex="1" parent="1">
          <mxGeometry x="907" y="637" width="19" height="20" as="geometry" />
        </mxCell>
        <mxCell id="BJyjRw2u1usJgPKZbhh1-349" value="" style="shape=mxgraph.flowchart.process;fillColor=#FFD966;strokeColor=#000000;strokeWidth=2;opacity=100" vertex="1" parent="1">
          <mxGeometry x="927.5" y="657" width="22.5" height="20" as="geometry" />
        </mxCell>
        <mxCell id="BJyjRw2u1usJgPKZbhh1-350" value="" style="shape=mxgraph.flowchart.process;fillColor=#FFD966;strokeColor=#000000;strokeWidth=2;opacity=100" vertex="1" parent="1">
          <mxGeometry x="950" y="677" width="100" height="20" as="geometry" />
        </mxCell>
        <mxCell id="BJyjRw2u1usJgPKZbhh1-351" value="" style="shape=mxgraph.flowchart.process;fillColor=#FFD966;strokeColor=#000000;strokeWidth=2;opacity=100" vertex="1" parent="1">
          <mxGeometry x="949" y="780" width="100" height="20" as="geometry" />
        </mxCell>
        <mxCell id="BJyjRw2u1usJgPKZbhh1-352" value="" style="shape=mxgraph.flowchart.process;fillColor=#FFD966;strokeColor=#000000;strokeWidth=2;opacity=100" vertex="1" parent="1">
          <mxGeometry x="985.5" y="800" width="63.5" height="20" as="geometry" />
        </mxCell>
        <mxCell id="BJyjRw2u1usJgPKZbhh1-353" value="" style="shape=mxgraph.flowchart.process;fillColor=#FFD966;strokeColor=#000000;strokeWidth=2;opacity=100" vertex="1" parent="1">
          <mxGeometry x="1026.5" y="820" width="22.5" height="20" as="geometry" />
        </mxCell>
        <mxCell id="BJyjRw2u1usJgPKZbhh1-354" value="" style="shape=mxgraph.flowchart.process;fillColor=#FFD966;strokeColor=#000000;strokeWidth=2;opacity=100" vertex="1" parent="1">
          <mxGeometry x="1026.5" y="840" width="22.5" height="20" as="geometry" />
        </mxCell>
        <mxCell id="BJyjRw2u1usJgPKZbhh1-355" value="Midway Meeting" style="align=left;strokeColor=#DEEDFF" vertex="1" parent="1">
          <mxGeometry x="126.50000000000111" y="980.0000000000034" width="319.99999999999886" height="20" as="geometry" />
        </mxCell>
        <mxCell id="BJyjRw2u1usJgPKZbhh1-356" value="27" style="strokeColor=#DEEDFF" vertex="1" parent="1">
          <mxGeometry x="86.50000000000102" y="1040.0000000000036" width="40" height="20" as="geometry" />
        </mxCell>
        <mxCell id="BJyjRw2u1usJgPKZbhh1-358" value="1 dayÂ " style="strokeColor=#DEEDFF" vertex="1" parent="1">
          <mxGeometry x="446.5000000000028" y="1020.0000000000036" width="80.00000000000028" height="20" as="geometry" />
        </mxCell>
        <mxCell id="BJyjRw2u1usJgPKZbhh1-359" value="22/09/2023" style="strokeColor=#DEEDFF" vertex="1" parent="1">
          <mxGeometry x="526.5000000000027" y="1020.0000000000036" width="80.00000000000028" height="20" as="geometry" />
        </mxCell>
        <mxCell id="BJyjRw2u1usJgPKZbhh1-361" value="23" style="strokeColor=#DEEDFF" vertex="1" parent="1">
          <mxGeometry x="86.50000000000102" y="940.0000000000036" width="40" height="20" as="geometry" />
        </mxCell>
        <mxCell id="BJyjRw2u1usJgPKZbhh1-362" value="Implementation Improvement" style="align=left;strokeColor=#DEEDFF" vertex="1" parent="1">
          <mxGeometry x="126.500000000001" y="941.0000000000036" width="319.999999999999" height="20" as="geometry" />
        </mxCell>
        <mxCell id="BJyjRw2u1usJgPKZbhh1-363" value="5 days" style="strokeColor=#DEEDFF" vertex="1" parent="1">
          <mxGeometry x="446.5000000000028" y="940.0000000000035" width="80.00000000000028" height="20" as="geometry" />
        </mxCell>
        <mxCell id="BJyjRw2u1usJgPKZbhh1-364" value="06/09/2023" style="strokeColor=#DEEDFF" vertex="1" parent="1">
          <mxGeometry x="526.5000000000031" y="941.0000000000035" width="80.00000000000028" height="20" as="geometry" />
        </mxCell>
        <mxCell id="BJyjRw2u1usJgPKZbhh1-365" value="10/09/2023" style="strokeColor=#DEEDFF" vertex="1" parent="1">
          <mxGeometry x="606.5000000000031" y="940.0000000000035" width="80.00000000000028" height="20" as="geometry" />
        </mxCell>
        <mxCell id="BJyjRw2u1usJgPKZbhh1-368" value="Project Demo" style="align=left;strokeColor=#DEEDFF" vertex="1" parent="1">
          <mxGeometry x="126.500000000001" y="1040.0000000000036" width="319.999999999999" height="20" as="geometry" />
        </mxCell>
        <mxCell id="BJyjRw2u1usJgPKZbhh1-369" value="1 day" style="strokeColor=#DEEDFF" vertex="1" parent="1">
          <mxGeometry x="446.5000000000028" y="1040.0000000000036" width="80.00000000000028" height="20" as="geometry" />
        </mxCell>
        <mxCell id="BJyjRw2u1usJgPKZbhh1-370" value="26/09/2023" style="strokeColor=#DEEDFF" vertex="1" parent="1">
          <mxGeometry x="526.5000000000027" y="1039.0000000000036" width="80.00000000000028" height="20" as="geometry" />
        </mxCell>
        <mxCell id="BJyjRw2u1usJgPKZbhh1-371" value="26/09/2023" style="strokeColor=#DEEDFF" vertex="1" parent="1">
          <mxGeometry x="606.5000000000026" y="1038.0000000000039" width="80.00000000000028" height="20" as="geometry" />
        </mxCell>
        <mxCell id="BJyjRw2u1usJgPKZbhh1-372" value="" style="shape=mxgraph.flowchart.process;fillColor=#7EA6E0;strokeColor=#000000;strokeWidth=2;opacity=100" vertex="1" parent="1">
          <mxGeometry x="1124" y="876" width="206" height="20" as="geometry" />
        </mxCell>
        <mxCell id="BJyjRw2u1usJgPKZbhh1-374" value="" style="shape=mxgraph.flowchart.process;fillColor=#7EA6E0;strokeColor=#000000;strokeWidth=2;opacity=100" vertex="1" parent="1">
          <mxGeometry x="1328.25" y="891" width="61.75" height="20" as="geometry" />
        </mxCell>
        <mxCell id="BJyjRw2u1usJgPKZbhh1-376" value="" style="shape=mxgraph.flowchart.process;fillColor=#7EA6E0;strokeColor=#000000;strokeWidth=2;opacity=100" vertex="1" parent="1">
          <mxGeometry x="1406.5" y="911" width="22.5" height="20" as="geometry" />
        </mxCell>
        <mxCell id="BJyjRw2u1usJgPKZbhh1-377" value="" style="shape=mxgraph.flowchart.process;fillColor=#7EA6E0;strokeColor=#000000;strokeWidth=2;opacity=100" vertex="1" parent="1">
          <mxGeometry x="1430" y="931" width="100" height="20" as="geometry" />
        </mxCell>
        <mxCell id="BJyjRw2u1usJgPKZbhh1-378" value="" style="shape=mxgraph.flowchart.process;fillColor=#7EA6E0;strokeColor=#000000;strokeWidth=2;opacity=100" vertex="1" parent="1">
          <mxGeometry x="1510.25" y="951" width="79.75" height="20" as="geometry" />
        </mxCell>
        <mxCell id="BJyjRw2u1usJgPKZbhh1-379" value="18 - 24 Sep" style="fillColor=#23445D;strokeColor=#FFFFFF;strokeWidth=2;fontColor=#FFFFFF;fontStyle=1" vertex="1" parent="1">
          <mxGeometry x="1666.5" y="340" width="143.5" height="20" as="geometry" />
        </mxCell>
        <mxCell id="BJyjRw2u1usJgPKZbhh1-392" value="M" style="fillColor=#23445D;strokeColor=#FFFFFF;strokeWidth=2;fontColor=#FFFFFF;fontStyle=1" vertex="1" parent="1">
          <mxGeometry x="1666.5000000000018" y="360.0000000000001" width="20" height="20" as="geometry" />
        </mxCell>
        <mxCell id="BJyjRw2u1usJgPKZbhh1-393" value="" style="strokeColor=#DEEDFF" vertex="1" parent="1">
          <mxGeometry x="1746.5" y="378" width="20" height="700" as="geometry" />
        </mxCell>
        <mxCell id="BJyjRw2u1usJgPKZbhh1-394" value="" style="shape=mxgraph.flowchart.process;fillColor=#7EA6E0;strokeColor=#000000;strokeWidth=2;opacity=100" vertex="1" parent="1">
          <mxGeometry x="1567.5" y="971" width="22.5" height="20" as="geometry" />
        </mxCell>
        <mxCell id="BJyjRw2u1usJgPKZbhh1-395" value="" style="shape=mxgraph.flowchart.process;fillColor=#7EA6E0;strokeColor=#000000;strokeWidth=2;opacity=100" vertex="1" parent="1">
          <mxGeometry x="1585.25" y="991" width="64.75" height="20" as="geometry" />
        </mxCell>
        <mxCell id="BJyjRw2u1usJgPKZbhh1-396" value="" style="shape=mxgraph.flowchart.process;fillColor=#7EA6E0;strokeColor=#000000;strokeWidth=2;opacity=100" vertex="1" parent="1">
          <mxGeometry x="1746.5" y="1011" width="22.5" height="20" as="geometry" />
        </mxCell>
        <mxCell id="BJyjRw2u1usJgPKZbhh1-397" value="" style="strokeColor=#DEEDFF" vertex="1" parent="1">
          <mxGeometry x="1810" y="360" width="20" height="700" as="geometry" />
        </mxCell>
        <mxCell id="BJyjRw2u1usJgPKZbhh1-398" value="" style="strokeColor=#DEEDFF" vertex="1" parent="1">
          <mxGeometry x="1830" y="360" width="20" height="700" as="geometry" />
        </mxCell>
        <mxCell id="BJyjRw2u1usJgPKZbhh1-399" value="" style="strokeColor=#DEEDFF" vertex="1" parent="1">
          <mxGeometry x="1850" y="360" width="20" height="700" as="geometry" />
        </mxCell>
        <mxCell id="BJyjRw2u1usJgPKZbhh1-400" value="" style="strokeColor=#DEEDFF" vertex="1" parent="1">
          <mxGeometry x="1870" y="360" width="20" height="700" as="geometry" />
        </mxCell>
        <mxCell id="BJyjRw2u1usJgPKZbhh1-401" value="" style="strokeColor=#DEEDFF;fillColor=#D4E1FF" vertex="1" parent="1">
          <mxGeometry x="1930" y="359" width="20" height="700" as="geometry" />
        </mxCell>
        <mxCell id="BJyjRw2u1usJgPKZbhh1-402" value="" style="strokeColor=#DEEDFF;fillColor=#D4E1FF" vertex="1" parent="1">
          <mxGeometry x="1910" y="360" width="20" height="700" as="geometry" />
        </mxCell>
        <mxCell id="BJyjRw2u1usJgPKZbhh1-403" value="W" style="fillColor=#23445D;strokeColor=#FFFFFF;strokeWidth=2;fontColor=#FFFFFF;fontStyle=1" vertex="1" parent="1">
          <mxGeometry x="1850.0000000000018" y="360.0000000000001" width="20" height="20" as="geometry" />
        </mxCell>
        <mxCell id="BJyjRw2u1usJgPKZbhh1-404" value="F" style="fillColor=#23445D;strokeColor=#FFFFFF;strokeWidth=2;fontColor=#FFFFFF;fontStyle=1" vertex="1" parent="1">
          <mxGeometry x="1890.0000000000016" y="360.0000000000001" width="20" height="20" as="geometry" />
        </mxCell>
        <mxCell id="BJyjRw2u1usJgPKZbhh1-405" value="S" style="fillColor=#23445D;strokeColor=#FFFFFF;strokeWidth=2;fontColor=#FFFFFF;fontStyle=1" vertex="1" parent="1">
          <mxGeometry x="1930" y="360" width="23.5" height="20" as="geometry" />
        </mxCell>
        <mxCell id="BJyjRw2u1usJgPKZbhh1-406" value="25 Sep - 1 Oct" style="fillColor=#23445D;strokeColor=#FFFFFF;strokeWidth=2;fontColor=#FFFFFF;fontStyle=1" vertex="1" parent="1">
          <mxGeometry x="1810" y="340" width="143.5" height="20" as="geometry" />
        </mxCell>
        <mxCell id="BJyjRw2u1usJgPKZbhh1-407" value="M" style="fillColor=#23445D;strokeColor=#FFFFFF;strokeWidth=2;fontColor=#FFFFFF;fontStyle=1" vertex="1" parent="1">
          <mxGeometry x="1810.0000000000018" y="360.0000000000001" width="20" height="20" as="geometry" />
        </mxCell>
        <mxCell id="BJyjRw2u1usJgPKZbhh1-408" value="" style="strokeColor=#DEEDFF" vertex="1" parent="1">
          <mxGeometry x="1890" y="378" width="20" height="700" as="geometry" />
        </mxCell>
        <mxCell id="BJyjRw2u1usJgPKZbhh1-410" value="T" style="fillColor=#23445D;strokeColor=#FFFFFF;strokeWidth=2;fontColor=#FFFFFF;fontStyle=1" vertex="1" parent="1">
          <mxGeometry x="1830.0000000000018" y="360.0000000000001" width="20" height="20" as="geometry" />
        </mxCell>
        <mxCell id="BJyjRw2u1usJgPKZbhh1-411" value="T" style="fillColor=#23445D;strokeColor=#FFFFFF;strokeWidth=2;fontColor=#FFFFFF;fontStyle=1" vertex="1" parent="1">
          <mxGeometry x="1870.0000000000018" y="360.0000000000001" width="20" height="20" as="geometry" />
        </mxCell>
        <mxCell id="BJyjRw2u1usJgPKZbhh1-412" value="S" style="fillColor=#23445D;strokeColor=#FFFFFF;strokeWidth=2;fontColor=#FFFFFF;fontStyle=1" vertex="1" parent="1">
          <mxGeometry x="1910" y="360" width="23.5" height="20" as="geometry" />
        </mxCell>
        <mxCell id="BJyjRw2u1usJgPKZbhh1-413" value="" style="shape=mxgraph.flowchart.process;fillColor=#7EA6E0;strokeColor=#000000;strokeWidth=2;opacity=100" vertex="1" parent="1">
          <mxGeometry x="1827.5" y="1031" width="22.5" height="20" as="geometry" />
        </mxCell>
        <mxCell id="BJyjRw2u1usJgPKZbhh1-417" value="" style="curved=1;endArrow=classic;html=1;rounded=0;fontSize=7.5;exitX=-0.172;exitY=0.123;exitDx=0;exitDy=0;exitPerimeter=0;" edge="1" parent="1">
          <mxGeometry width="50" height="50" relative="1" as="geometry">
            <mxPoint x="797.06" y="466.64" as="sourcePoint" />
            <mxPoint x="794" y="493" as="targetPoint" />
            <Array as="points">
              <mxPoint x="824" y="463" />
              <mxPoint x="825" y="480" />
            </Array>
          </mxGeometry>
        </mxCell>
        <mxCell id="BJyjRw2u1usJgPKZbhh1-418" value="" style="curved=1;endArrow=classic;html=1;rounded=0;fontSize=7.5;exitX=-0.172;exitY=0.123;exitDx=0;exitDy=0;exitPerimeter=0;" edge="1" parent="1">
          <mxGeometry width="50" height="50" relative="1" as="geometry">
            <mxPoint x="909.06" y="539.64" as="sourcePoint" />
            <mxPoint x="906" y="566" as="targetPoint" />
            <Array as="points">
              <mxPoint x="936" y="536" />
              <mxPoint x="937" y="553" />
            </Array>
          </mxGeometry>
        </mxCell>
        <mxCell id="BJyjRw2u1usJgPKZbhh1-419" value="" style="shape=mxgraph.flowchart.process;fillColor=#FFD966;strokeColor=#000000;strokeWidth=2;opacity=100" vertex="1" parent="1">
          <mxGeometry x="950" y="699" width="22.5" height="20" as="geometry" />
        </mxCell>
        <mxCell id="BJyjRw2u1usJgPKZbhh1-420" value="" style="shape=mxgraph.flowchart.process;fillColor=#FFD966;strokeColor=#000000;strokeWidth=2;opacity=100" vertex="1" parent="1">
          <mxGeometry x="966.5" y="720" width="43.5" height="20" as="geometry" />
        </mxCell>
        <mxCell id="BJyjRw2u1usJgPKZbhh1-421" value="" style="shape=mxgraph.flowchart.process;fillColor=#FFD966;strokeColor=#000000;strokeWidth=2;opacity=100" vertex="1" parent="1">
          <mxGeometry x="988.75" y="740" width="41.25" height="20" as="geometry" />
        </mxCell>
        <mxCell id="BJyjRw2u1usJgPKZbhh1-422" value="" style="shape=mxgraph.flowchart.process;fillColor=#FFD966;strokeColor=#000000;strokeWidth=2;opacity=100" vertex="1" parent="1">
          <mxGeometry x="1010" y="760" width="40" height="20" as="geometry" />
        </mxCell>
        <mxCell id="BJyjRw2u1usJgPKZbhh1-424" value="" style="shape=mxgraph.flowchart.process;fillColor=#7EA6E0;strokeColor=#000000;strokeWidth=2;opacity=100" vertex="1" parent="1">
          <mxGeometry x="1050" y="860" width="74" height="20" as="geometry" />
        </mxCell>
      </root>
    </mxGraphModel>
  </diagram>
</mxfile>
